<svg width="631" height="396" viewBox="0 0 631 396" fill="none" xmlns="http://www.w3.org/2000/svg">
<path d="M63.2643 395.625C63.2643 395.625 62.8813 365.106 35.5483 335.106C8.21534 305.106 -13.1187 268.919 9.54834 233.679C32.2153 198.44 77.6173 192.642 86.5833 155.208C95.5493 117.774 98.3113 72.2424 142.263 48.0084C186.215 23.7744 234.693 49.8304 281.121 39.1354C327.549 28.4404 392.194 -18.2266 447.538 7.77337C502.882 33.7734 497.258 102.2 541.07 129.986C584.882 157.773 635.548 212.604 630.215 271.855C624.882 331.106 590.882 379.476 571.882 395.625H63.2643Z" fill="#4F80FA"/>
<path d="M525.773 124.646C546.732 124.646 563.722 107.656 563.722 86.6974C563.722 65.7388 546.732 48.7484 525.773 48.7484C504.815 48.7484 487.824 65.7388 487.824 86.6974C487.824 107.656 504.815 124.646 525.773 124.646Z" fill="#EE6092"/>
<path d="M525.773 117.646C542.866 117.646 556.722 103.79 556.722 86.6974C556.722 69.6048 542.866 55.7484 525.773 55.7484C508.681 55.7484 494.824 69.6048 494.824 86.6974C494.824 103.79 508.681 117.646 525.773 117.646Z" fill="#F5F5F7"/>
<path d="M538.106 64.6464L525.773 86.6974L543.439 80.7554" stroke="#A0A7C1" stroke-width="2" stroke-miterlimit="10"/>
<path d="M525.773 58.7974V64.1314" stroke="#717B9F" stroke-miterlimit="10"/>
<path d="M525.773 109.263V114.596" stroke="#717B9F" stroke-miterlimit="10"/>
<path d="M553.672 86.6974H548.339" stroke="#717B9F" stroke-miterlimit="10"/>
<path d="M503.207 86.6974H497.873" stroke="#717B9F" stroke-miterlimit="10"/>
<path d="M287.05 61.1494C287.214 59.8834 287.308 58.5944 287.308 57.2834C287.308 55.9724 287.214 54.6844 287.05 53.4174L280.497 52.5674C280.141 50.8174 279.572 49.1484 278.851 47.5634L283.676 43.0024C282.432 40.7224 280.894 38.6274 279.122 36.7564L273.295 39.9344C272.002 38.7524 270.584 37.7074 269.051 36.8354L270.273 30.3124C267.97 29.2154 265.502 28.4104 262.92 27.9314L260.08 33.9144C259.215 33.8174 258.338 33.7584 257.447 33.7584C256.556 33.7584 255.68 33.8184 254.814 33.9144L251.974 27.9314C249.391 28.4104 246.924 29.2154 244.62 30.3124L245.842 36.8354C244.308 37.7074 242.891 38.7524 241.598 39.9344L235.771 36.7564C233.999 38.6274 232.461 40.7224 231.217 43.0024L236.042 47.5634C235.321 49.1484 234.752 50.8174 234.396 52.5674L227.843 53.4174C227.679 54.6834 227.586 55.9724 227.586 57.2834C227.586 58.5944 227.68 59.8824 227.843 61.1494L234.396 61.9994C234.752 63.7494 235.321 65.4184 236.042 67.0034L231.217 71.5644C232.461 73.8444 233.999 75.9394 235.771 77.8104L241.598 74.6324C242.891 75.8144 244.309 76.8594 245.842 77.7314L244.62 84.2544C246.923 85.3514 249.391 86.1564 251.973 86.6354L254.813 80.6524C255.679 80.7494 256.555 80.8084 257.446 80.8084C258.337 80.8084 259.214 80.7484 260.079 80.6524L262.919 86.6354C265.502 86.1564 267.969 85.3514 270.272 84.2544L269.05 77.7314C270.584 76.8594 272.001 75.8144 273.294 74.6324L279.121 77.8104C280.893 75.9394 282.431 73.8444 283.675 71.5644L278.85 67.0034C279.571 65.4184 280.14 63.7494 280.496 61.9994L287.05 61.1494ZM257.446 72.8954C248.824 72.8954 241.834 65.9054 241.834 57.2834C241.834 48.6614 248.824 41.6714 257.446 41.6714C266.068 41.6714 273.058 48.6614 273.058 57.2834C273.058 65.9054 266.068 72.8954 257.446 72.8954Z" fill="#B0B7D4"/>
<path d="M317.94 41.7914C317.852 41.0924 317.723 40.3914 317.541 39.6904C317.359 38.9904 317.13 38.3154 316.867 37.6614L313.248 38.1174C312.815 37.2324 312.279 36.4194 311.674 35.6724L313.618 32.5664C312.637 31.5214 311.525 30.6154 310.318 29.8614L307.646 32.3684C306.791 31.9164 305.889 31.5554 304.948 31.3024L304.695 27.6484C303.312 27.3814 301.882 27.2944 300.436 27.3974L299.75 30.9884C299.274 31.0574 298.798 31.1464 298.322 31.2704C297.846 31.3944 297.386 31.5474 296.937 31.7194L294.589 28.9174C293.276 29.5314 292.069 30.3044 290.991 31.2104L292.549 34.5254C291.851 35.2044 291.239 35.9594 290.712 36.7704L287.158 35.8814C286.471 37.1264 285.94 38.4594 285.592 39.8504L288.803 41.6174C288.638 42.5644 288.566 43.5344 288.618 44.5194L285.235 45.8834C285.323 46.5824 285.452 47.2834 285.634 47.9844C285.816 48.6844 286.045 49.3604 286.308 50.0134L289.927 49.5574C290.36 50.4424 290.896 51.2554 291.501 52.0024L289.557 55.1084C290.538 56.1534 291.65 57.0594 292.857 57.8134L295.529 55.3064C296.384 55.7584 297.286 56.1194 298.227 56.3724L298.48 60.0264C299.863 60.2934 301.293 60.3804 302.739 60.2774L303.426 56.6864C303.902 56.6174 304.378 56.5284 304.854 56.4044C305.33 56.2804 305.79 56.1274 306.239 55.9554L308.587 58.7574C309.9 58.1434 311.107 57.3704 312.185 56.4644L310.627 53.1494C311.325 52.4704 311.937 51.7154 312.464 50.9044L316.018 51.7934C316.705 50.5484 317.236 49.2154 317.584 47.8244L314.373 46.0574C314.538 45.1104 314.61 44.1404 314.557 43.1554L317.94 41.7914ZM303.756 52.1764C299.15 53.3734 294.446 50.6094 293.249 46.0034C292.052 41.3974 294.816 36.6924 299.422 35.4964C304.028 34.3004 308.733 37.0634 309.929 41.6694C311.126 46.2754 308.362 50.9794 303.756 52.1764Z" fill="#E3E3ED"/>
<path d="M304.792 70.1114C304.74 69.7014 304.665 69.2914 304.558 68.8804C304.451 68.4694 304.317 68.0744 304.163 67.6914L302.043 67.9584C301.789 67.4394 301.476 66.9634 301.121 66.5264L302.26 64.7064C301.685 64.0944 301.034 63.5634 300.327 63.1214L298.762 64.5904C298.261 64.3254 297.733 64.1134 297.182 63.9654L297.034 61.8244C296.224 61.6684 295.386 61.6174 294.539 61.6774L294.137 63.7814C293.858 63.8214 293.579 63.8744 293.3 63.9464C293.021 64.0194 292.752 64.1084 292.489 64.2094L291.114 62.5674C290.345 62.9274 289.638 63.3804 289.006 63.9104L289.919 65.8524C289.51 66.2504 289.151 66.6924 288.843 67.1674L286.761 66.6464C286.358 67.3764 286.047 68.1564 285.844 68.9714L287.725 70.0064C287.628 70.5614 287.586 71.1294 287.617 71.7064L285.635 72.5054C285.687 72.9154 285.762 73.3264 285.869 73.7364C285.976 74.1464 286.11 74.5424 286.264 74.9254L288.384 74.6584C288.638 75.1774 288.952 75.6534 289.306 76.0904L288.167 77.9104C288.742 78.5224 289.394 79.0534 290.1 79.4954L291.665 78.0264C292.166 78.2914 292.694 78.5024 293.245 78.6514L293.393 80.7924C294.203 80.9484 295.041 81.0004 295.888 80.9394L296.29 78.8354C296.569 78.7954 296.848 78.7424 297.127 78.6704C297.406 78.5974 297.675 78.5084 297.938 78.4074L299.313 80.0494C300.082 79.6894 300.789 79.2364 301.421 78.7064L300.508 76.7644C300.917 76.3664 301.276 75.9244 301.584 75.4494L303.666 75.9704C304.069 75.2404 304.38 74.4604 304.583 73.6454L302.702 72.6104C302.799 72.0554 302.841 71.4874 302.81 70.9104L304.792 70.1114ZM296.482 76.1954C293.783 76.8964 291.027 75.2774 290.326 72.5784C289.625 69.8794 291.244 67.1234 293.943 66.4224C296.642 65.7214 299.398 67.3404 300.099 70.0394C300.8 72.7384 299.181 75.4944 296.482 76.1954Z" fill="#EE6092"/>
<path d="M96.9793 332.912C96.9793 332.912 83.1133 276.11 93.5743 271.353C104.035 266.595 105.811 302.912 102.653 331.925L96.9793 332.912Z" fill="#717B9F"/>
<path d="M108.772 331.926C108.772 331.926 112.348 275.675 123.883 275.478C135.418 275.281 122.699 310.018 115.045 331.926H108.772Z" fill="#717B9F"/>
<path d="M91.6004 331.136C91.6004 331.136 83.7054 286.77 74.0344 287.538C64.3634 288.306 86.0084 331.925 86.0084 331.925L91.6004 331.136Z" fill="#717B9F"/>
<path d="M117.851 331.926C117.851 331.926 132.128 292.649 141.47 294.82C150.812 296.991 131.114 324.522 124.778 331.48L117.851 331.926Z" fill="#717B9F"/>
<path d="M82.7184 332.912C82.7184 332.912 59.5634 310.609 67.9834 302.714C76.4024 294.819 86.0734 324.031 86.6664 331.729L82.7184 332.912Z" fill="#A0A7C1"/>
<path d="M89.8244 331.137C89.8244 331.137 76.0084 293.439 85.4824 288.11C94.9564 282.781 97.9164 316.137 96.7324 331.137H89.8244Z" fill="#A0A7C1"/>
<path d="M102.653 331.927C102.653 331.927 96.5343 281.795 108.771 279.229C121.008 276.663 116.271 310.019 108.771 331.927H102.653Z" fill="#A0A7C1"/>
<path d="M113.508 331.927C113.508 331.927 121.6 296.005 130.877 296.992C140.153 297.979 128.509 319.097 117.851 331.927H113.508Z" fill="#A0A7C1"/>
<path d="M123.882 331.137C123.882 331.137 133.048 309.426 139.759 310.61C146.47 311.794 133.838 328.176 128.509 332.913L123.882 331.137Z" fill="#A0A7C1"/>
<path d="M133.64 395.625H71.2713C70.2663 395.625 69.4213 394.869 69.3103 393.871L62.0073 328.592C61.9453 328.034 62.1233 327.475 62.4973 327.056C62.8713 326.637 63.4063 326.398 63.9683 326.398H141.337C141.901 326.398 142.438 326.639 142.812 327.06C143.186 327.482 143.363 328.043 143.297 328.603L135.6 393.882C135.483 394.877 134.641 395.625 133.64 395.625Z" fill="#E3E3ED"/>
<path d="M67.9833 382.012L69.3103 393.871C69.4223 394.869 70.2663 395.625 71.2713 395.625H133.64C134.641 395.625 135.483 394.876 135.6 393.883L141.469 344.108L67.9833 382.012Z" fill="#B0B7D4"/>
<path d="M67.9833 336.662L72.8503 387.781" stroke="white" stroke-width="3" stroke-miterlimit="10" stroke-linecap="round" stroke-linejoin="round"/>
<path d="M179.793 145.503C179.793 145.503 188.318 111.441 188.484 107.695C188.651 103.949 183.725 96.5533 180.853 88.0013C177.981 79.4493 176.166 70.7233 174.032 70.3213C171.899 69.9193 172.087 76.9353 172.087 76.9353C172.087 76.9353 169.627 76.0753 168.379 78.7723C167.131 81.4693 168.665 97.6853 167.414 100.441C166.163 103.197 161.368 140.686 163.591 142.705C165.814 144.723 168.863 149.315 168.863 149.315L170.527 173.755L190.379 171.903L179.793 145.503Z" fill="#B46A79"/>
<path d="M150.244 160.257C149.658 161.618 148.08 162.246 146.72 161.66L65.4243 126.656C64.0633 126.07 63.4353 124.492 64.0213 123.132L108.305 20.2824C108.891 18.9214 110.469 18.2934 111.829 18.8794L193.125 53.8834C194.486 54.4694 195.114 56.0474 194.528 57.4074L150.244 160.257Z" fill="#FF9E3D"/>
<path d="M115.017 27.6882L76.7931 116.458L146.326 146.399L184.55 57.6288L115.017 27.6882Z" fill="#F5F5F7"/>
<path d="M174.093 39.8483L157.273 32.6063C158.904 32.2923 160.356 31.2033 161.063 29.5623C162.196 26.9303 160.981 23.8783 158.349 22.7443C155.717 21.6113 152.665 22.8263 151.531 25.4583C150.825 27.0993 151.031 28.9023 151.924 30.3033L135.104 23.0613C133.743 22.4753 132.24 22.9303 131.746 24.0773L127.846 33.1343C127.352 34.2813 128.055 35.6853 129.416 36.2713L168.405 53.0593C169.765 53.6453 171.269 53.1903 171.762 52.0433L175.662 42.9863C176.157 41.8393 175.454 40.4343 174.093 39.8483ZM156.994 25.8923C157.888 26.2773 158.3 27.3133 157.915 28.2063C157.53 29.1003 156.494 29.5123 155.601 29.1273C154.708 28.7423 154.295 27.7063 154.68 26.8133C155.065 25.9203 156.101 25.5083 156.994 25.8923Z" fill="#283263"/>
<path d="M121.52 50.1973C120.652 52.2133 118.314 53.1443 116.297 52.2763C114.281 51.4083 113.35 49.0693 114.218 47.0533C115.086 45.0373 117.425 44.1063 119.441 44.9743C121.458 45.8433 122.389 48.1813 121.52 50.1973Z" fill="#AFB8D5"/>
<path d="M125.608 50.0049L124.193 53.2894L170.317 73.1499L171.731 69.8653L125.608 50.0049Z" fill="#E3E3ED"/>
<path d="M114.827 65.7434C113.959 67.7594 111.62 68.6904 109.604 67.8224C107.588 66.9544 106.657 64.6154 107.525 62.5994C108.393 60.5834 110.732 59.6524 112.748 60.5204C114.764 61.3884 115.695 63.7264 114.827 65.7434Z" fill="#AFB8D5"/>
<path d="M118.915 65.5503L117.501 68.8348L163.624 88.6953L165.039 85.4107L118.915 65.5503Z" fill="#E3E3ED"/>
<path d="M108.134 81.2884C107.266 83.3044 104.928 84.2354 102.911 83.3674C100.895 82.4994 99.9643 80.1604 100.832 78.1444C101.7 76.1284 104.039 75.1974 106.055 76.0654C108.071 76.9334 109.002 79.2714 108.134 81.2884Z" fill="#AFB8D5"/>
<path d="M112.222 81.0967L110.807 84.3812L156.931 104.242L158.345 100.957L112.222 81.0967Z" fill="#E3E3ED"/>
<path d="M101.44 96.8333C100.572 98.8493 98.2333 99.7803 96.2173 98.9123C94.2013 98.0443 93.2703 95.7053 94.1383 93.6893C95.0063 91.6733 97.3453 90.7423 99.3613 91.6103C101.378 92.4783 102.308 94.8173 101.44 96.8333Z" fill="#AFB8D5"/>
<path d="M105.528 96.6416L104.114 99.9261L150.237 119.787L151.652 116.502L105.528 96.6416Z" fill="#E3E3ED"/>
<path d="M186.981 152.673C186.3 151.246 178.152 145.757 172.744 146.449C167.336 147.141 163.5 154.63 162.927 157.607C162.354 160.585 167.738 233.146 172.9 239.632C178.062 246.118 269.083 281.204 276.524 282.787C283.965 284.37 295.308 243.584 291.798 237.922C288.289 232.26 222.25 214.803 216.218 209.78C210.186 204.757 188.812 156.508 186.981 152.673Z" fill="#F4CD6C"/>
<path d="M193.901 167.78C193.901 167.78 178.727 160.552 163.632 172.398" stroke="#FFB266" stroke-miterlimit="10" stroke-linecap="round" stroke-linejoin="round"/>
<path d="M172.744 146.448C172.744 146.448 173.731 154.812 176.167 166.318" stroke="#FFB266" stroke-miterlimit="10" stroke-linecap="round" stroke-linejoin="round"/>
<path d="M178.929 147.539C178.929 147.539 182.218 156.357 184.479 165.646" stroke="#FFB266" stroke-miterlimit="10" stroke-linecap="round" stroke-linejoin="round"/>
<path d="M185.135 150.933C185.135 150.933 188.874 160.743 190.599 166.963" stroke="#FFB266" stroke-miterlimit="10" stroke-linecap="round" stroke-linejoin="round"/>
<path d="M165.946 151.281C165.946 151.281 165.62 160.304 166.969 169.336" stroke="#FFB266" stroke-miterlimit="10" stroke-linecap="round" stroke-linejoin="round"/>
<path d="M288.665 261.753C288.665 261.753 197.115 234.874 187.46 225.427C177.805 215.98 172.928 167.25 172.928 167.25" stroke="#FFB266" stroke-miterlimit="10" stroke-linecap="round" stroke-linejoin="round" stroke-dasharray="4 3"/>
<path d="M176.238 135.427C176.238 135.427 175.786 118.564 172.034 115.182C168.282 111.8 163.475 107.34 162.315 105.3C161.155 103.26 158.643 97.8514 156.917 97.2774C155.191 96.7034 151.505 100.793 153.691 107.897C155.877 115.001 159.706 118.926 159.506 123.421C159.306 127.917 158.272 139.882 160.692 141.742C163.111 143.601 175.599 144.157 176.238 135.427Z" fill="#B46A79"/>
<path d="M411.442 117.002C411.442 117.002 396.745 85.1135 395.886 81.4635C395.027 77.8135 398.495 69.6324 399.73 60.6954C400.965 51.7594 401.13 42.8474 403.151 42.0564C405.173 41.2654 406.29 48.1944 406.29 48.1944C406.29 48.1944 408.548 46.8924 410.275 49.3114C412.002 51.7304 413.504 67.9484 415.245 70.4254C416.986 72.9014 428.654 108.85 426.844 111.245C425.034 113.641 422.891 118.718 422.891 118.718L425.791 143.042L405.94 144.906L411.442 117.002Z" fill="#B46A79"/>
<path d="M461.617 72.0064C462.766 73.2004 462.73 75.0994 461.537 76.2484L435.425 101.393C434.232 102.542 432.332 102.506 431.183 101.313L385.799 54.1844C384.65 52.9914 384.686 51.0914 385.879 49.9424L411.991 24.7974C413.184 23.6484 415.084 23.6844 416.233 24.8774L461.617 72.0064Z" fill="#131230"/>
<path d="M451.605 66.4754C452.754 67.6694 452.718 69.5684 451.525 70.7174L430.275 91.1794C429.082 92.3284 427.182 92.2924 426.033 91.0994L390.485 54.1834C389.336 52.9904 389.372 51.0904 390.565 49.9414L411.815 29.4794C413.008 28.3304 414.908 28.3664 416.057 29.5594L451.605 66.4754Z" fill="#B0B7D4"/>
<path d="M449.207 80.7444C449.826 81.3874 449.806 82.4094 449.164 83.0284L442.667 89.2844C442.025 89.9034 441.002 89.8844 440.383 89.2414C439.764 88.5984 439.784 87.5764 440.426 86.9574L446.923 80.7014C447.566 80.0824 448.589 80.1014 449.207 80.7444Z" fill="#283263"/>
<path d="M410.476 57.9604C410.415 58.6454 410.349 61.9294 410.906 62.8804C411.463 63.8314 414.69 66.3844 421.194 66.2674C427.697 66.1504 430.556 64.2184 431.361 63.0844C432.166 61.9494 431.775 59.1464 431.735 58.5184C431.695 57.8904 430.848 57.5444 430.083 57.7084C429.317 57.8724 427.111 58.5094 426.56 58.6304C426.009 58.7504 425.449 59.3414 425.414 59.8364C425.379 60.3324 425.542 61.3544 425.381 61.5604C425.22 61.7664 422.648 62.3974 421.054 62.3934C419.46 62.3894 416.941 61.5844 416.763 61.3454C416.585 61.1064 416.674 60.0284 416.66 59.6404C416.646 59.2524 416.496 58.8844 415.509 58.5514C414.522 58.2194 412.354 57.5114 411.749 57.3634C411.144 57.2154 410.523 57.4364 410.476 57.9604Z" fill="#EE6092"/>
<path d="M417.78 55.3175C417.78 55.3175 420.53 52.0595 424.503 55.0905" stroke="#F5F5F7" stroke-miterlimit="10" stroke-linecap="round" stroke-linejoin="round"/>
<path d="M415.48 52.9285C415.48 52.9285 419.682 48.2805 426.664 53.0095" stroke="#F5F5F7" stroke-miterlimit="10" stroke-linecap="round" stroke-linejoin="round"/>
<path d="M405.709 125.381C406.114 123.852 413.101 116.947 418.544 116.623C423.986 116.299 429.146 122.946 430.261 125.766C431.376 128.586 439.551 200.886 435.682 208.217C431.813 215.549 348.884 266.917 341.866 269.852C334.848 272.788 316.134 234.816 318.532 228.601C320.93 222.386 382.582 192.977 387.577 186.922C392.572 180.866 404.621 129.489 405.709 125.381Z" fill="#F4CD6C"/>
<path d="M401.712 141.509C401.712 141.509 415.282 131.591 432.312 140.43" stroke="#FFB266" stroke-miterlimit="10" stroke-linecap="round" stroke-linejoin="round"/>
<path d="M418.544 116.623C418.544 116.623 419.126 125.025 418.868 136.783" stroke="#FFB266" stroke-miterlimit="10" stroke-linecap="round" stroke-linejoin="round"/>
<path d="M412.669 118.842C412.669 118.842 411.073 128.117 410.575 137.664" stroke="#FFB266" stroke-miterlimit="10" stroke-linecap="round" stroke-linejoin="round"/>
<path d="M407.2 123.328C407.2 123.328 405.346 133.662 404.805 140.093" stroke="#FFB266" stroke-miterlimit="10" stroke-linecap="round" stroke-linejoin="round"/>
<path d="M426.12 120.11C426.12 120.11 428.115 128.916 428.465 138.041" stroke="#FFB266" stroke-miterlimit="10" stroke-linecap="round" stroke-linejoin="round"/>
<path d="M326.032 251.436C326.032 251.436 411.004 208.036 418.738 196.961C426.472 185.887 422.222 137.098 422.222 137.098" stroke="#FFB266" stroke-miterlimit="10" stroke-linecap="round" stroke-linejoin="round" stroke-dasharray="4 3"/>
<path d="M413.065 106.441C413.065 106.441 410.38 89.7874 413.439 85.7674C416.499 81.7474 420.394 76.4734 421.155 74.2534C421.917 72.0334 423.381 66.2524 424.971 65.3674C426.561 64.4824 430.941 67.8174 430.112 75.2044C429.282 82.5914 426.248 87.1574 427.279 91.5384C428.31 95.9184 431.546 107.484 429.514 109.761C427.481 112.037 415.313 114.901 413.065 106.441Z" fill="#B46A79"/>
<path d="M480.588 241.377C480.588 241.377 482.895 206.34 483.883 202.723C484.87 199.105 491.823 193.572 497.174 186.309C502.525 179.046 506.924 171.294 509.078 171.564C511.232 171.834 508.906 178.455 508.906 178.455C508.906 178.455 511.511 178.389 511.875 181.338C512.238 184.288 505.816 199.257 506.163 202.263C506.511 205.27 499.604 242.428 496.87 243.669C494.136 244.91 489.829 248.349 489.829 248.349L480.767 271.107L462.434 263.27L480.588 241.377Z" fill="#B46A79"/>
<path d="M566.968 225.017C567.584 226.555 566.836 228.301 565.298 228.917L511.454 250.476C509.916 251.092 508.17 250.344 507.554 248.806L480.198 180.485C479.582 178.947 480.33 177.201 481.868 176.585L535.712 155.026C537.25 154.41 538.996 155.158 539.612 156.696L566.968 225.017Z" fill="#FF9E3D"/>
<path d="M534.892 171.88L501.241 185.354L509.192 205.212L542.843 191.738L534.892 171.88Z" fill="#F5F5F7"/>
<path d="M488.608 173.887L481.868 176.586C480.33 177.202 479.582 178.948 480.198 180.486L507.554 248.807C508.17 250.345 509.916 251.093 511.454 250.477L518.194 247.778L488.608 173.887Z" fill="#283263"/>
<path d="M487.056 232.872C487.056 232.872 492.646 216.956 497.253 214.884C501.86 212.812 507.801 210.036 509.53 208.45C511.259 206.863 515.305 202.482 517.124 202.463C518.943 202.444 521.2 207.466 516.945 213.561C512.69 219.656 507.844 222.22 506.659 226.561C505.474 230.902 502.797 242.61 499.924 243.64C497.052 244.671 484.993 241.379 487.056 232.872Z" fill="#B46A79"/>
<path d="M471.551 246.003C472.636 244.853 482.073 242.12 487.01 244.434C491.947 246.748 493.308 255.051 492.942 258.061C492.576 261.071 465.247 328.505 458.348 333.1C451.448 337.695 354.058 343.247 346.489 342.477C338.921 341.707 340.602 299.407 345.676 295.091C350.75 290.775 418.962 294.363 426.242 291.426C433.522 288.489 468.634 249.094 471.551 246.003Z" fill="#F4CD6C"/>
<path d="M460.341 258.267C460.341 258.267 476.999 256.029 487.745 271.926" stroke="#FFB266" stroke-miterlimit="10" stroke-linecap="round" stroke-linejoin="round"/>
<path d="M487.01 244.434C487.01 244.434 483.511 252.095 477.671 262.303" stroke="#FFB266" stroke-miterlimit="10" stroke-linecap="round" stroke-linejoin="round"/>
<path d="M480.789 243.579C480.789 243.579 474.959 250.968 469.964 259.119" stroke="#FFB266" stroke-miterlimit="10" stroke-linecap="round" stroke-linejoin="round"/>
<path d="M473.842 244.911C473.842 244.911 467.28 253.107 463.735 258.5" stroke="#FFB266" stroke-miterlimit="10" stroke-linecap="round" stroke-linejoin="round"/>
<path d="M492.003 251.114C492.003 251.114 489.552 259.804 485.504 267.99" stroke="#FFB266" stroke-miterlimit="10" stroke-linecap="round" stroke-linejoin="round"/>
<path d="M341.341 320.562C341.341 320.562 421.052 322.488 438.756 316.955C456.46 311.422 479.876 263.742 479.876 263.742" stroke="#FFB266" stroke-miterlimit="10" stroke-linecap="round" stroke-linejoin="round" stroke-dasharray="4 3"/>
<path d="M454.26 386.97C454.26 386.97 479.455 365.704 483.686 365.411C487.917 365.118 510.804 363.836 514.843 363.9C518.882 363.964 524.075 371.758 528.306 375.554C532.537 379.35 525.614 379.259 522.152 377.189C518.69 375.119 514.651 371.721 511.959 371.401C509.266 371.08 491.94 373.388 489.929 374.735C487.919 376.081 486.38 378.005 493.496 377.235C500.612 376.466 507.728 376.499 511.382 378.886C515.036 381.274 508.882 383.737 504.074 385.39C499.266 387.043 493.689 385.167 490.804 386.971C487.919 388.774 481.957 395.121 474.841 393.583C471.79 392.923 462.631 393.661 458.808 392.38C453.711 390.672 454.26 386.97 454.26 386.97Z" fill="#B46A79"/>
<path d="M268.965 218.44C268.965 218.44 232.215 237.44 220.548 254.773C208.881 272.106 219.881 346.44 226.548 363.773C233.215 381.106 234.548 391.773 249.215 394.44C263.882 397.107 464.215 394.44 464.215 394.44C464.215 394.44 472.882 386.44 467.215 374.107C467.215 374.107 425.548 357.44 410.215 352.774C394.882 348.107 392.882 348.607 391.548 348.607C390.215 348.607 391.715 345.107 389.881 344.274C388.048 343.441 385.048 343.274 384.381 342.441C383.714 341.608 385.881 337.941 385.381 336.774C384.881 335.607 381.881 333.607 380.881 331.441C379.881 329.275 362.381 266.274 355.548 254.941C348.715 243.608 325.798 229.502 307.34 223.471C288.882 217.44 268.965 218.44 268.965 218.44Z" fill="#FFDC78"/>
<path d="M433.465 379.878C430.715 377.556 414.715 365.191 411.715 364.191C409.281 363.38 383.009 371.125 373.185 374.077C373.998 379.801 372.588 390.296 368.434 395.068C368.766 395.267 369.117 395.458 369.505 395.627C369.505 395.627 439.719 394.564 442.465 394.619C444.226 394.654 436.215 382.199 433.465 379.878Z" fill="#B46A79"/>
<path d="M407.965 372.737C407.965 372.737 426.215 383.691 428.715 385.441C431.215 387.191 435.465 394.683 435.465 394.683" stroke="#915064" stroke-miterlimit="10" stroke-linecap="round" stroke-linejoin="round"/>
<path d="M404.84 380.869C404.84 380.869 421.715 389.066 423.34 389.691C424.965 390.316 427.839 394.781 427.839 394.781" stroke="#915064" stroke-miterlimit="10" stroke-linecap="round" stroke-linejoin="round"/>
<path d="M401.59 389.691C401.59 389.691 412.91 393.061 415.813 393.626C418.715 394.191 420.34 395.066 420.34 395.066" stroke="#915064" stroke-miterlimit="10" stroke-linecap="round" stroke-linejoin="round"/>
<path d="M218.916 257.922C218.916 257.922 235.965 247.441 253.465 264.941C270.965 282.441 277.715 323.441 282.465 342.191C282.465 342.191 285.965 343.191 286.715 343.941C287.465 344.691 286.715 348.941 286.715 348.941C286.715 348.941 303.072 351.441 318.518 356.941C333.965 362.441 368.215 368.99 371.465 370.24C374.715 371.49 374.068 389.177 368.142 395.402" stroke="#FFB266" stroke-miterlimit="10" stroke-linecap="round" stroke-linejoin="round"/>
<path d="M286.715 348.941C265.611 347.191 248.048 365.191 244.507 375.191" stroke="#FFB266" stroke-miterlimit="10" stroke-linecap="round" stroke-linejoin="round"/>
<path d="M276.965 341.94C276.965 341.94 256.215 346.19 246.715 364.19" stroke="#FFB266" stroke-miterlimit="10" stroke-linecap="round" stroke-linejoin="round"/>
<path d="M357.439 366.337C357.439 366.337 349.715 374.69 348.465 382.19C347.215 389.69 348.465 395.4 348.465 395.4" stroke="#FFB266" stroke-miterlimit="10" stroke-linecap="round" stroke-linejoin="round"/>
<path d="M354.251 370.282C354.251 370.282 366.349 372.69 373.407 375.19" stroke="#FFB266" stroke-miterlimit="10" stroke-linecap="round" stroke-linejoin="round"/>
<path d="M350.259 376.846C350.259 376.846 361.29 379.547 373.252 380.869" stroke="#FFB266" stroke-miterlimit="10" stroke-linecap="round" stroke-linejoin="round"/>
<path d="M347.909 385.44C347.909 385.44 361.472 387.054 371.968 387.872" stroke="#FFB266" stroke-miterlimit="10" stroke-linecap="round" stroke-linejoin="round"/>
<path d="M347.909 392.19C347.909 392.19 359.294 393.625 369.504 393.625" stroke="#FFB266" stroke-miterlimit="10" stroke-linecap="round" stroke-linejoin="round"/>
<path d="M223.548 255.607C223.548 255.607 223.499 256.305 223.424 257.599" stroke="#FFB266" stroke-linecap="round" stroke-linejoin="round"/>
<path d="M223.267 260.594C222.717 271.968 221.829 300.97 225.215 328.371C229.548 363.44 235.548 371.032 237.548 371.616C239.548 372.199 241.215 367.792 242.548 369.162C243.881 370.532 239.881 382.659 242.215 382.776C244.509 382.891 277.457 395.084 344.41 390.4" stroke="#FFB266" stroke-linecap="round" stroke-linejoin="round" stroke-dasharray="4 3"/>
<path d="M345.915 390.291C346.577 390.243 347.241 390.193 347.909 390.141" stroke="#FFB266" stroke-linecap="round" stroke-linejoin="round"/>
<path d="M346.215 267.107C346.215 267.107 362.11 288.774 363.829 302.107C365.548 315.44 358.707 334.44 358.707 334.44L364.019 368.413" stroke="#FFB266" stroke-miterlimit="10" stroke-linecap="round" stroke-linejoin="round"/>
<path d="M454.26 368.992C454.26 368.992 447.545 378.13 449.88 394.618" stroke="#FFB266" stroke-miterlimit="10" stroke-linecap="round" stroke-linejoin="round"/>
<path d="M452.265 372.736L468.263 376.846" stroke="#FFB266" stroke-miterlimit="10" stroke-linecap="round" stroke-linejoin="round"/>
<path d="M450.131 379.822C450.131 379.822 460.873 382.445 469.127 382.776" stroke="#FFB266" stroke-miterlimit="10" stroke-linecap="round" stroke-linejoin="round"/>
<path d="M449.387 387.872C449.387 387.872 459.735 388.638 468.225 387.872" stroke="#FFB266" stroke-miterlimit="10" stroke-linecap="round" stroke-linejoin="round"/>
<path d="M449.668 392.908C449.668 392.908 456.547 393.542 465.548 392.908" stroke="#FFB266" stroke-miterlimit="10" stroke-linecap="round" stroke-linejoin="round"/>
<path d="M385.882 348.822C385.882 348.822 373.549 350.739 365.382 362.006" stroke="#FFB266" stroke-miterlimit="10" stroke-linecap="round" stroke-linejoin="round"/>
<path d="M380.715 337.107C380.715 337.107 370.634 345.222 366.382 356.607" stroke="#FFB266" stroke-miterlimit="10" stroke-linecap="round" stroke-linejoin="round"/>
<path d="M307.843 341.94C307.843 341.94 324.438 331.773 345.993 327.44" stroke="#FFB266" stroke-miterlimit="10" stroke-linecap="round" stroke-linejoin="round"/>
<path d="M323.567 337.204C323.567 337.204 337.877 334.916 352.189 334.69" stroke="#FFB266" stroke-miterlimit="10" stroke-linecap="round" stroke-linejoin="round"/>
<path d="M298.215 100.94C298.215 100.94 306.215 87.4403 321.965 87.1903C337.715 86.9403 376.215 109.19 384.715 117.69C393.215 126.19 393.715 136.059 391.215 139.875C388.715 143.69 381.965 147.374 383.465 153.282C384.965 159.19 394.965 171.656 389.715 184.048C384.465 196.44 371.374 194.69 368.919 200.44C366.465 206.19 370.642 226.44 358.679 234.19C346.715 241.94 338.105 224.94 329.91 225.19C321.715 225.44 317.965 238.69 298.215 233.44C278.465 228.19 281.98 211.898 271.973 208.919C261.965 205.94 250.965 209.44 245.715 196.94C240.465 184.44 253.467 178.042 262.716 166.116C271.965 154.19 275.964 135.69 278.215 121.19C280.466 106.69 286.215 99.6903 298.215 100.94Z" fill="#131230"/>
<path d="M368.587 201.473C369.303 190.832 377.965 186.905 377.715 176.798C377.465 166.69 368.592 153.06 373.154 139.875C377.715 126.69 377.721 112.119 377.721 112.119" stroke="#283263" stroke-miterlimit="10" stroke-linecap="round" stroke-linejoin="round"/>
<path d="M374.789 163.573C374.789 163.573 377.465 178.19 365.715 186.69C353.965 195.19 369.465 211.333 365.715 224.512" stroke="#283263" stroke-miterlimit="10" stroke-linecap="round" stroke-linejoin="round"/>
<path d="M384.465 142.739C384.465 142.739 384.215 150.322 389.965 158.881C395.715 167.44 400.215 185.145 389.965 194.042C379.715 202.94 366.465 199.94 363.465 219.69" stroke="#131230" stroke-miterlimit="10" stroke-linecap="round" stroke-linejoin="round"/>
<path d="M319.715 278.19C319.715 278.19 328.188 253.311 324.876 230.93C319.004 227.899 312.965 225.309 307.34 223.471C288.882 217.44 268.965 218.44 268.965 218.44C268.965 218.44 259.551 223.31 248.742 230.363C248.755 230.378 279.474 265.443 319.715 278.19Z" fill="#F5F5F7"/>
<path d="M300.953 232.75C300.953 232.75 310.715 252.441 319.715 278.191" stroke="#B0B7D4" stroke-miterlimit="10"/>
<path d="M281.405 182.327C281.405 182.327 277.965 203.815 268.965 218.44C268.965 218.44 278.41 236.472 290.715 235.44C303.02 234.408 306.34 228.19 306.34 228.19C306.34 228.19 308.076 217.624 312.708 207.97L281.405 182.327Z" fill="#B46A79"/>
<path d="M312.708 207.969L281.405 182.327C281.405 182.327 280.652 187.031 278.928 193.535C282.564 204.002 289.953 220.618 300.589 222.065C303.468 222.457 305.891 222.055 307.935 221.145C308.953 217.373 310.501 212.569 312.708 207.969Z" fill="#915064"/>
<path d="M340.215 112.107C376.882 128.44 371.215 158.107 362.215 179.107C353.215 200.107 327.882 218.107 301.882 203.774C275.882 189.441 273.882 165.107 283.549 139.774C291.945 117.767 314.375 100.596 340.215 112.107Z" fill="#B46A79"/>
<path d="M342.198 142.739C342.198 142.739 333.733 151.937 330.81 168.477C330.81 168.477 340.239 167.166 340.534 171.718C340.829 176.271 332.592 180.717 327.989 181.51" stroke="#915064" stroke-miterlimit="10" stroke-linecap="round" stroke-linejoin="round"/>
<path d="M323.192 154.155C322.549 156.268 320.743 157.591 319.158 157.108C317.573 156.626 316.809 154.521 317.452 152.408C318.095 150.294 319.901 148.972 321.486 149.455C323.072 149.937 323.835 152.042 323.192 154.155Z" fill="#110654"/>
<path d="M320.71 152.006C320.71 152.006 325.029 153.843 329.909 150.973" stroke="#110654" stroke-miterlimit="10" stroke-linecap="round" stroke-linejoin="round"/>
<path d="M351.961 163.063C351.318 165.176 349.512 166.499 347.927 166.016C346.342 165.534 345.578 163.429 346.221 161.316C346.864 159.203 348.67 157.88 350.256 158.363C351.841 158.846 352.605 160.95 351.961 163.063Z" fill="#110654"/>
<path d="M349.48 160.721C349.48 160.721 353.799 162.558 358.679 159.688" stroke="#110654" stroke-miterlimit="10" stroke-linecap="round" stroke-linejoin="round"/>
<path d="M310.882 176.798C310.882 176.798 314.215 190.631 328.382 191.298" stroke="#915064" stroke-miterlimit="10" stroke-linecap="round" stroke-linejoin="round"/>
<path d="M316.692 166.363C314.861 173.21 306.709 176.978 298.483 174.778C290.258 172.579 285.074 165.245 286.905 158.398C288.736 151.551 296.888 147.783 305.114 149.983C313.339 152.182 318.523 159.516 316.692 166.363Z" fill="#9E4961"/>
<path d="M362.215 179.107C363.599 175.877 364.904 172.441 365.989 168.88C365 168.41 363.952 168.014 362.843 167.717C354.618 165.518 346.465 169.285 344.635 176.133C342.948 182.441 347.224 189.153 354.338 191.891C357.608 187.957 360.288 183.603 362.215 179.107Z" fill="#9E4961"/>
<path d="M321.965 87.1903C306.215 87.4403 298.215 100.94 298.215 100.94C286.215 99.6903 280.465 106.69 278.215 121.19C277.246 127.435 275.948 134.422 274.051 141.306C297.077 159.795 325.311 129.939 325.311 129.939C319.156 144.188 338.355 148.123 352.19 133.843C361.754 123.972 365.512 111.791 366.923 105.207C351.959 96.3303 332.18 87.0283 321.965 87.1903Z" fill="#283263"/>
<path d="M331.017 88.6403C331.017 88.6403 313.374 139.31 284.669 146.625C284.669 146.625 314.965 128.69 326.422 87.5913" stroke="#131230" stroke-miterlimit="10" stroke-linecap="round" stroke-linejoin="round"/>
<path d="M314.88 135.566C316.406 131.977 320.945 129.772 324.624 129.459C328.464 129.132 332.771 130.227 335.129 133.516C335.486 134.014 334.643 133.69 334.48 133.632C333.391 133.248 332.304 132.948 331.186 132.66C329.199 132.27 327.147 132.179 325.136 132.414C322.951 132.67 320.846 133.149 318.796 133.959C317.85 134.333 316.913 134.763 316.018 135.248C315.804 135.364 314.789 136.175 314.88 135.566Z" fill="#131230"/>
<path d="M350.749 142.593C355.475 139.567 362.617 146.049 359.641 150.981C359.472 151.26 359.352 150.934 359.292 150.786C359.043 150.168 358.777 149.567 358.47 148.975C357.807 147.696 356.816 146.638 355.748 145.69C354.678 144.741 353.443 144.022 352.142 143.441C351.917 143.342 350.254 142.937 350.749 142.593Z" fill="#131230"/>
<path d="M278.215 167.089L281.405 146.019C281.405 146.019 280.465 127.593 269.215 130.19C257.965 132.787 261.464 165.739 278.215 167.089Z" fill="#B46A79"/>
<path d="M262.716 144.412C263.062 154.488 268.328 166.293 278.215 167.09L281.23 147.181C278.518 142.922 271.569 134.723 262.716 144.412Z" fill="#915064"/>
<path d="M274.554 207.008C274.554 207.008 281.549 221.274 301.382 226.44C301.382 226.44 307.08 223.273 308.729 218.378L309.632 215.577C309.632 215.577 310.549 215.508 310.882 216.724C311.215 217.94 316.016 226.753 316.016 226.753C316.016 226.753 316.349 251.44 316.016 251.607C315.683 251.774 302.382 235.483 302.382 235.483L299.715 255.607C299.715 255.607 269.603 244.611 263.909 221.192C263.909 221.192 265.957 219.128 268.965 214.774C271.973 210.419 273.949 205.938 274.554 207.008Z" fill="#B0B7D4"/>
<path d="M201.011 183.428H81.5133C79.8563 183.428 78.5133 184.771 78.5133 186.428V259.1C78.5133 260.757 79.8563 262.1 81.5133 262.1H160.75C163.478 269.025 170.864 280.675 189.929 282.07C189.929 282.07 184.01 274.308 183.035 262.1H201.011C202.668 262.1 204.011 260.757 204.011 259.1V186.428C204.011 184.771 202.667 183.428 201.011 183.428Z" fill="white"/>
<path d="M115.787 195.011H106.67V248.737H115.787V195.011Z" fill="#FFDC78"/>
<path d="M131.117 229.343H122V248.738H131.117V229.343Z" fill="#EE6092"/>
<path d="M146.447 219.884H137.33V248.738H146.447V219.884Z" fill="#FFDC78"/>
<path d="M177.106 219.884H167.989V248.738H177.106V219.884Z" fill="#FFDC78"/>
<path d="M161.776 205.006H152.659V248.737H161.776V205.006Z" fill="#EE6092"/>
<path d="M95.1813 195.011V248.737H188.595" stroke="#717B9F" stroke-miterlimit="10"/>
<path d="M343.282 392.625C343.282 394.282 344.625 395.625 346.282 395.625H582.715C584.372 395.625 585.715 394.282 585.715 392.625V391.656C585.715 389.999 584.372 388.656 582.715 388.656H346.282C344.625 388.656 343.282 389.999 343.282 391.656V392.625Z" fill="#717B9F"/>
<path d="M422.965 392.625V391.656C422.965 389.999 421.622 388.656 419.965 388.656H346.282C344.625 388.656 343.282 389.999 343.282 391.656V392.625C343.282 394.282 344.625 395.625 346.282 395.625H419.965C421.622 395.625 422.965 394.282 422.965 392.625Z" fill="#A0A7C1"/>
<path d="M583.049 388.656H426.532C425.943 388.656 425.385 388.389 425.015 387.931C424.645 387.473 424.502 386.872 424.626 386.296L450.225 267.113C450.417 266.214 451.212 265.572 452.131 265.572H608.648C609.238 265.572 609.795 265.839 610.165 266.297C610.535 266.755 610.678 267.356 610.555 267.932L584.956 387.115C584.763 388.014 583.968 388.656 583.049 388.656Z" fill="#B0B7D4"/>
<path d="M581.965 309.19C564.215 319.94 552.215 338.94 532.715 346.94C509.715 356.19 492.215 338.69 469.965 337.19C456.965 336.19 446.465 338.19 434.965 344.44C434.583 344.631 434.065 344.884 433.456 345.184L424.626 386.296C424.502 386.872 424.645 387.473 425.015 387.931C425.385 388.389 425.943 388.656 426.532 388.656H583.049C583.968 388.656 584.763 388.014 584.956 387.115L603.706 299.818C595.958 301.57 588.601 305.018 581.965 309.19Z" fill="#A0A7C1"/>
<path d="M525.773 344.237C533.117 344.237 539.07 338.284 539.07 330.94C539.07 323.597 533.117 317.643 525.773 317.643C518.43 317.643 512.476 323.597 512.476 330.94C512.476 338.284 518.43 344.237 525.773 344.237Z" fill="#F5F5F7"/>
</svg>
